<svg width="17" height="17" viewBox="0 0 17 17" fill="none" xmlns="http://www.w3.org/2000/svg">
<path fill-rule="evenodd" clip-rule="evenodd" d="M6.88788 8.95529C8.77321 8.95529 10.2844 7.42449 10.2844 5.51475C10.2844 3.60504 8.77321 2.07422 6.88788 2.07422C5.00256 2.07422 3.4913 3.60504 3.4913 5.51475C3.4913 7.42449 5.00256 8.95529 6.88788 8.95529ZM6.88788 10.64C4.11882 10.64 1.75464 11.0828 1.75464 12.8516C1.75464 14.6197 4.10443 15.0784 6.88788 15.0784C9.65627 15.0784 12.0211 14.6357 12.0211 12.8668C12.0211 11.098 9.67133 10.64 6.88788 10.64ZM14.0045 6.92538H14.828C15.1669 6.92538 15.4433 7.20562 15.4433 7.54933C15.4433 7.89299 15.1669 8.17326 14.828 8.17326H14.0045V8.97904C14.0045 9.32276 13.7289 9.60297 13.3893 9.60297C13.0504 9.60297 12.774 9.32276 12.774 8.97904V8.17326H11.952C11.6123 8.17326 11.3367 7.89299 11.3367 7.54933C11.3367 7.20562 11.6123 6.92538 11.952 6.92538H12.774V6.12032C12.774 5.77662 13.0504 5.49638 13.3893 5.49638C13.7289 5.49638 14.0045 5.77662 14.0045 6.12032V6.92538Z" fill="white"/>
</svg>
