<svg width="18" height="17" viewBox="0 0 18 17" fill="none" xmlns="http://www.w3.org/2000/svg">
<path d="M15.4873 2.02333C15.1449 1.67195 14.6382 1.54105 14.1658 1.67884L3.14874 4.88257C2.65027 5.02106 2.29696 5.41859 2.20178 5.92361C2.10455 6.43758 2.44417 7.09005 2.88786 7.36287L6.33265 9.48009C6.68596 9.69712 7.14198 9.64271 7.43435 9.34779L11.379 5.37863C11.5775 5.17194 11.9062 5.17194 12.1048 5.37863C12.3034 5.57844 12.3034 5.90226 12.1048 6.10895L8.15331 10.0788C7.86023 10.373 7.80548 10.8312 8.02114 11.1867L10.126 14.666C10.3724 15.0794 10.797 15.3136 11.2625 15.3136C11.3174 15.3136 11.379 15.3136 11.4338 15.3067C11.9678 15.2379 12.3923 14.8727 12.5498 14.356L15.8159 3.35305C15.9597 2.88455 15.8296 2.37471 15.4873 2.02333Z" fill="white"/>
</svg>
